<mxfile host="Electron" modified="2024-04-21T10:37:45.442Z" agent="Mozilla/5.0 (Windows NT 10.0; Win64; x64) AppleWebKit/537.36 (KHTML, like Gecko) draw.io/24.1.0 Chrome/120.0.6099.109 Electron/28.1.0 Safari/537.36" version="24.1.0" etag="ViJ15vDtEy29wanrlN_w" type="device">
  <diagram id="3kMxKMyflBXLISWC-xZN" name="Page-1">
    <mxGraphModel dx="2449" dy="2006" grid="0" gridSize="10" guides="1" tooltips="1" connect="1" arrows="1" fold="1" page="0" pageScale="1" pageWidth="850" pageHeight="1100" math="0" shadow="0">
      <root>
        <mxCell id="0" />
        <mxCell id="1" parent="0" />
        <mxCell id="15" value="" style="childLayout=tableLayout;recursiveResize=0;shadow=0;fillColor=none;" parent="1" vertex="1">
          <mxGeometry x="-108" y="32" width="784" height="47" as="geometry" />
        </mxCell>
        <mxCell id="16" value="" style="shape=tableRow;horizontal=0;startSize=0;swimlaneHead=0;swimlaneBody=0;top=0;left=0;bottom=0;right=0;dropTarget=0;collapsible=0;recursiveResize=0;expand=0;fontStyle=0;fillColor=none;strokeColor=inherit;" parent="15" vertex="1">
          <mxGeometry width="784" height="47" as="geometry" />
        </mxCell>
        <mxCell id="17" value="Text content" style="connectable=0;recursiveResize=0;strokeColor=inherit;fillColor=none;align=center;whiteSpace=wrap;html=1;" parent="16" vertex="1">
          <mxGeometry width="144" height="47" as="geometry">
            <mxRectangle width="144" height="47" as="alternateBounds" />
          </mxGeometry>
        </mxCell>
        <mxCell id="18" value="M" style="connectable=0;recursiveResize=0;strokeColor=inherit;fillColor=none;align=center;whiteSpace=wrap;html=1;" parent="16" vertex="1">
          <mxGeometry x="144" width="320" height="47" as="geometry">
            <mxRectangle width="320" height="47" as="alternateBounds" />
          </mxGeometry>
        </mxCell>
        <mxCell id="19" value="a" style="connectable=0;recursiveResize=0;strokeColor=inherit;fillColor=none;align=center;whiteSpace=wrap;html=1;" parent="16" vertex="1">
          <mxGeometry x="464" width="320" height="47" as="geometry">
            <mxRectangle width="320" height="47" as="alternateBounds" />
          </mxGeometry>
        </mxCell>
        <mxCell id="28" value="" style="childLayout=tableLayout;recursiveResize=0;shadow=0;fillColor=none;" parent="1" vertex="1">
          <mxGeometry x="-108" y="79" width="784" height="47" as="geometry" />
        </mxCell>
        <mxCell id="29" value="" style="shape=tableRow;horizontal=0;startSize=0;swimlaneHead=0;swimlaneBody=0;top=0;left=0;bottom=0;right=0;dropTarget=0;collapsible=0;recursiveResize=0;expand=0;fontStyle=0;fillColor=none;strokeColor=inherit;" parent="28" vertex="1">
          <mxGeometry width="784" height="47" as="geometry" />
        </mxCell>
        <mxCell id="30" value="ASCII" style="connectable=0;recursiveResize=0;strokeColor=inherit;fillColor=none;align=center;whiteSpace=wrap;html=1;" parent="29" vertex="1">
          <mxGeometry width="144" height="47" as="geometry">
            <mxRectangle width="144" height="47" as="alternateBounds" />
          </mxGeometry>
        </mxCell>
        <mxCell id="31" value="77" style="connectable=0;recursiveResize=0;strokeColor=inherit;fillColor=none;align=center;whiteSpace=wrap;html=1;" parent="29" vertex="1">
          <mxGeometry x="144" width="320" height="47" as="geometry">
            <mxRectangle width="320" height="47" as="alternateBounds" />
          </mxGeometry>
        </mxCell>
        <mxCell id="32" value="97" style="connectable=0;recursiveResize=0;strokeColor=inherit;fillColor=none;align=center;whiteSpace=wrap;html=1;" parent="29" vertex="1">
          <mxGeometry x="464" width="320" height="47" as="geometry">
            <mxRectangle width="320" height="47" as="alternateBounds" />
          </mxGeometry>
        </mxCell>
        <mxCell id="102" value="Bit pattern" style="rounded=0;whiteSpace=wrap;html=1;" parent="1" vertex="1">
          <mxGeometry x="-108" y="126" width="144" height="47" as="geometry" />
        </mxCell>
        <mxCell id="103" value="0" style="rounded=0;whiteSpace=wrap;html=1;" parent="1" vertex="1">
          <mxGeometry x="36" y="126" width="40" height="47" as="geometry" />
        </mxCell>
        <mxCell id="104" value="1" style="rounded=0;whiteSpace=wrap;html=1;" parent="1" vertex="1">
          <mxGeometry x="76" y="126" width="40" height="47" as="geometry" />
        </mxCell>
        <mxCell id="105" value="0" style="rounded=0;whiteSpace=wrap;html=1;" parent="1" vertex="1">
          <mxGeometry x="156" y="126" width="40" height="47" as="geometry" />
        </mxCell>
        <mxCell id="106" value="0" style="rounded=0;whiteSpace=wrap;html=1;" parent="1" vertex="1">
          <mxGeometry x="116" y="126" width="40" height="47" as="geometry" />
        </mxCell>
        <mxCell id="107" value="1" style="rounded=0;whiteSpace=wrap;html=1;" parent="1" vertex="1">
          <mxGeometry x="236" y="126" width="40" height="47" as="geometry" />
        </mxCell>
        <mxCell id="108" value="1" style="rounded=0;whiteSpace=wrap;html=1;" parent="1" vertex="1">
          <mxGeometry x="196" y="126" width="40" height="47" as="geometry" />
        </mxCell>
        <mxCell id="109" value="0" style="rounded=0;whiteSpace=wrap;html=1;" parent="1" vertex="1">
          <mxGeometry x="276" y="126" width="40" height="47" as="geometry" />
        </mxCell>
        <mxCell id="110" value="1" style="rounded=0;whiteSpace=wrap;html=1;" parent="1" vertex="1">
          <mxGeometry x="316" y="126" width="40" height="47" as="geometry" />
        </mxCell>
        <mxCell id="111" value="0" style="rounded=0;whiteSpace=wrap;html=1;" parent="1" vertex="1">
          <mxGeometry x="356" y="126" width="40" height="47" as="geometry" />
        </mxCell>
        <mxCell id="112" value="1" style="rounded=0;whiteSpace=wrap;html=1;" parent="1" vertex="1">
          <mxGeometry x="436" y="126" width="40" height="47" as="geometry" />
        </mxCell>
        <mxCell id="113" value="1" style="rounded=0;whiteSpace=wrap;html=1;" parent="1" vertex="1">
          <mxGeometry x="396" y="126" width="40" height="47" as="geometry" />
        </mxCell>
        <mxCell id="114" value="0" style="rounded=0;whiteSpace=wrap;html=1;" parent="1" vertex="1">
          <mxGeometry x="516" y="126" width="40" height="47" as="geometry" />
        </mxCell>
        <mxCell id="115" value="0" style="rounded=0;whiteSpace=wrap;html=1;" parent="1" vertex="1">
          <mxGeometry x="476" y="126" width="40" height="47" as="geometry" />
        </mxCell>
        <mxCell id="116" value="0" style="rounded=0;whiteSpace=wrap;html=1;" parent="1" vertex="1">
          <mxGeometry x="556" y="126" width="40" height="47" as="geometry" />
        </mxCell>
        <mxCell id="117" value="Index" style="rounded=0;whiteSpace=wrap;html=1;" parent="1" vertex="1">
          <mxGeometry x="-108" y="173" width="144" height="47" as="geometry" />
        </mxCell>
        <mxCell id="118" value="19" style="rounded=0;whiteSpace=wrap;html=1;" parent="1" vertex="1">
          <mxGeometry x="36" y="173" width="240" height="47" as="geometry" />
        </mxCell>
        <mxCell id="119" value="0" style="rounded=0;whiteSpace=wrap;html=1;" parent="1" vertex="1">
          <mxGeometry x="596" y="126" width="40" height="47" as="geometry" />
        </mxCell>
        <mxCell id="120" value="1" style="rounded=0;whiteSpace=wrap;html=1;" parent="1" vertex="1">
          <mxGeometry x="636" y="126" width="40" height="47" as="geometry" />
        </mxCell>
        <mxCell id="121" value="22" style="rounded=0;whiteSpace=wrap;html=1;" parent="1" vertex="1">
          <mxGeometry x="276" y="173" width="240" height="47" as="geometry" />
        </mxCell>
        <mxCell id="122" value="5" style="rounded=0;whiteSpace=wrap;html=1;" parent="1" vertex="1">
          <mxGeometry x="516" y="173" width="240" height="47" as="geometry" />
        </mxCell>
        <mxCell id="123" value="Base64-Encoded" style="rounded=0;whiteSpace=wrap;html=1;" parent="1" vertex="1">
          <mxGeometry x="-108" y="220" width="144" height="47" as="geometry" />
        </mxCell>
        <mxCell id="124" value="T" style="rounded=0;whiteSpace=wrap;html=1;" parent="1" vertex="1">
          <mxGeometry x="36" y="220" width="240" height="47" as="geometry" />
        </mxCell>
        <mxCell id="125" value="W" style="rounded=0;whiteSpace=wrap;html=1;" parent="1" vertex="1">
          <mxGeometry x="276" y="220" width="240" height="47" as="geometry" />
        </mxCell>
        <mxCell id="127" value="A" style="rounded=0;whiteSpace=wrap;html=1;" parent="1" vertex="1">
          <mxGeometry x="-107" y="-528" width="40" height="47" as="geometry" />
        </mxCell>
        <mxCell id="129" value="0" style="rounded=0;whiteSpace=wrap;html=1;" parent="1" vertex="1">
          <mxGeometry x="-107" y="-481" width="40" height="47" as="geometry" />
        </mxCell>
        <mxCell id="271" value="B" style="rounded=0;whiteSpace=wrap;html=1;" parent="1" vertex="1">
          <mxGeometry x="-67" y="-528" width="40" height="47" as="geometry" />
        </mxCell>
        <mxCell id="272" value="1" style="rounded=0;whiteSpace=wrap;html=1;" parent="1" vertex="1">
          <mxGeometry x="-67" y="-481" width="40" height="47" as="geometry" />
        </mxCell>
        <mxCell id="273" value="C" style="rounded=0;whiteSpace=wrap;html=1;" parent="1" vertex="1">
          <mxGeometry x="-27" y="-528" width="40" height="47" as="geometry" />
        </mxCell>
        <mxCell id="274" value="2" style="rounded=0;whiteSpace=wrap;html=1;" parent="1" vertex="1">
          <mxGeometry x="-27" y="-481" width="40" height="47" as="geometry" />
        </mxCell>
        <mxCell id="275" value="D" style="rounded=0;whiteSpace=wrap;html=1;" parent="1" vertex="1">
          <mxGeometry x="13" y="-528" width="40" height="47" as="geometry" />
        </mxCell>
        <mxCell id="276" value="3" style="rounded=0;whiteSpace=wrap;html=1;" parent="1" vertex="1">
          <mxGeometry x="13" y="-481" width="40" height="47" as="geometry" />
        </mxCell>
        <mxCell id="277" value="E" style="rounded=0;whiteSpace=wrap;html=1;" parent="1" vertex="1">
          <mxGeometry x="53" y="-528" width="40" height="47" as="geometry" />
        </mxCell>
        <mxCell id="278" value="4" style="rounded=0;whiteSpace=wrap;html=1;" parent="1" vertex="1">
          <mxGeometry x="53" y="-481" width="40" height="47" as="geometry" />
        </mxCell>
        <mxCell id="279" value="F" style="rounded=0;whiteSpace=wrap;html=1;" parent="1" vertex="1">
          <mxGeometry x="93" y="-528" width="40" height="47" as="geometry" />
        </mxCell>
        <mxCell id="280" value="5" style="rounded=0;whiteSpace=wrap;html=1;" parent="1" vertex="1">
          <mxGeometry x="93" y="-481" width="40" height="47" as="geometry" />
        </mxCell>
        <mxCell id="281" value="G" style="rounded=0;whiteSpace=wrap;html=1;" parent="1" vertex="1">
          <mxGeometry x="133" y="-528" width="40" height="47" as="geometry" />
        </mxCell>
        <mxCell id="282" value="6" style="rounded=0;whiteSpace=wrap;html=1;" parent="1" vertex="1">
          <mxGeometry x="133" y="-481" width="40" height="47" as="geometry" />
        </mxCell>
        <mxCell id="283" value="H" style="rounded=0;whiteSpace=wrap;html=1;" parent="1" vertex="1">
          <mxGeometry x="173" y="-528" width="40" height="47" as="geometry" />
        </mxCell>
        <mxCell id="284" value="7" style="rounded=0;whiteSpace=wrap;html=1;" parent="1" vertex="1">
          <mxGeometry x="173" y="-481" width="40" height="47" as="geometry" />
        </mxCell>
        <mxCell id="285" value="I" style="rounded=0;whiteSpace=wrap;html=1;" parent="1" vertex="1">
          <mxGeometry x="213" y="-528" width="40" height="47" as="geometry" />
        </mxCell>
        <mxCell id="286" value="8" style="rounded=0;whiteSpace=wrap;html=1;" parent="1" vertex="1">
          <mxGeometry x="213" y="-481" width="40" height="47" as="geometry" />
        </mxCell>
        <mxCell id="287" value="J" style="rounded=0;whiteSpace=wrap;html=1;" parent="1" vertex="1">
          <mxGeometry x="253" y="-528" width="40" height="47" as="geometry" />
        </mxCell>
        <mxCell id="288" value="9" style="rounded=0;whiteSpace=wrap;html=1;" parent="1" vertex="1">
          <mxGeometry x="253" y="-481" width="40" height="47" as="geometry" />
        </mxCell>
        <mxCell id="289" value="K" style="rounded=0;whiteSpace=wrap;html=1;" parent="1" vertex="1">
          <mxGeometry x="293" y="-528" width="40" height="47" as="geometry" />
        </mxCell>
        <mxCell id="290" value="10" style="rounded=0;whiteSpace=wrap;html=1;" parent="1" vertex="1">
          <mxGeometry x="293" y="-481" width="40" height="47" as="geometry" />
        </mxCell>
        <mxCell id="291" value="L" style="rounded=0;whiteSpace=wrap;html=1;" parent="1" vertex="1">
          <mxGeometry x="333" y="-528" width="40" height="47" as="geometry" />
        </mxCell>
        <mxCell id="292" value="11" style="rounded=0;whiteSpace=wrap;html=1;" parent="1" vertex="1">
          <mxGeometry x="333" y="-481" width="40" height="47" as="geometry" />
        </mxCell>
        <mxCell id="293" value="M" style="rounded=0;whiteSpace=wrap;html=1;" parent="1" vertex="1">
          <mxGeometry x="373" y="-528" width="40" height="47" as="geometry" />
        </mxCell>
        <mxCell id="294" value="12" style="rounded=0;whiteSpace=wrap;html=1;" parent="1" vertex="1">
          <mxGeometry x="373" y="-481" width="40" height="47" as="geometry" />
        </mxCell>
        <mxCell id="295" value="N" style="rounded=0;whiteSpace=wrap;html=1;" parent="1" vertex="1">
          <mxGeometry x="413" y="-528" width="40" height="47" as="geometry" />
        </mxCell>
        <mxCell id="296" value="13" style="rounded=0;whiteSpace=wrap;html=1;" parent="1" vertex="1">
          <mxGeometry x="413" y="-481" width="40" height="47" as="geometry" />
        </mxCell>
        <mxCell id="297" value="O" style="rounded=0;whiteSpace=wrap;html=1;" parent="1" vertex="1">
          <mxGeometry x="453" y="-528" width="40" height="47" as="geometry" />
        </mxCell>
        <mxCell id="298" value="14" style="rounded=0;whiteSpace=wrap;html=1;" parent="1" vertex="1">
          <mxGeometry x="453" y="-481" width="40" height="47" as="geometry" />
        </mxCell>
        <mxCell id="299" value="P" style="rounded=0;whiteSpace=wrap;html=1;" parent="1" vertex="1">
          <mxGeometry x="493" y="-528" width="40" height="47" as="geometry" />
        </mxCell>
        <mxCell id="300" value="15" style="rounded=0;whiteSpace=wrap;html=1;" parent="1" vertex="1">
          <mxGeometry x="493" y="-481" width="40" height="47" as="geometry" />
        </mxCell>
        <mxCell id="301" value="Q" style="rounded=0;whiteSpace=wrap;html=1;" parent="1" vertex="1">
          <mxGeometry x="534" y="-528" width="40" height="47" as="geometry" />
        </mxCell>
        <mxCell id="302" value="16" style="rounded=0;whiteSpace=wrap;html=1;" parent="1" vertex="1">
          <mxGeometry x="534" y="-481" width="40" height="47" as="geometry" />
        </mxCell>
        <mxCell id="303" value="R" style="rounded=0;whiteSpace=wrap;html=1;" parent="1" vertex="1">
          <mxGeometry x="574" y="-528" width="40" height="47" as="geometry" />
        </mxCell>
        <mxCell id="304" value="17" style="rounded=0;whiteSpace=wrap;html=1;" parent="1" vertex="1">
          <mxGeometry x="574" y="-481" width="40" height="47" as="geometry" />
        </mxCell>
        <mxCell id="305" value="S" style="rounded=0;whiteSpace=wrap;html=1;" parent="1" vertex="1">
          <mxGeometry x="614" y="-528" width="40" height="47" as="geometry" />
        </mxCell>
        <mxCell id="306" value="18" style="rounded=0;whiteSpace=wrap;html=1;" parent="1" vertex="1">
          <mxGeometry x="614" y="-481" width="40" height="47" as="geometry" />
        </mxCell>
        <mxCell id="307" value="T" style="rounded=0;whiteSpace=wrap;html=1;" parent="1" vertex="1">
          <mxGeometry x="654" y="-528" width="40" height="47" as="geometry" />
        </mxCell>
        <mxCell id="308" value="19" style="rounded=0;whiteSpace=wrap;html=1;" parent="1" vertex="1">
          <mxGeometry x="654" y="-481" width="40" height="47" as="geometry" />
        </mxCell>
        <mxCell id="309" value="U" style="rounded=0;whiteSpace=wrap;html=1;" parent="1" vertex="1">
          <mxGeometry x="694" y="-528" width="40" height="47" as="geometry" />
        </mxCell>
        <mxCell id="310" value="20" style="rounded=0;whiteSpace=wrap;html=1;" parent="1" vertex="1">
          <mxGeometry x="694" y="-481" width="40" height="47" as="geometry" />
        </mxCell>
        <mxCell id="311" value="V" style="rounded=0;whiteSpace=wrap;html=1;" parent="1" vertex="1">
          <mxGeometry x="734" y="-528" width="40" height="47" as="geometry" />
        </mxCell>
        <mxCell id="312" value="21" style="rounded=0;whiteSpace=wrap;html=1;" parent="1" vertex="1">
          <mxGeometry x="734" y="-481" width="40" height="47" as="geometry" />
        </mxCell>
        <mxCell id="313" value="W" style="rounded=0;whiteSpace=wrap;html=1;" parent="1" vertex="1">
          <mxGeometry x="774" y="-528" width="40" height="47" as="geometry" />
        </mxCell>
        <mxCell id="314" value="22" style="rounded=0;whiteSpace=wrap;html=1;" parent="1" vertex="1">
          <mxGeometry x="774" y="-481" width="40" height="47" as="geometry" />
        </mxCell>
        <mxCell id="315" value="X" style="rounded=0;whiteSpace=wrap;html=1;" parent="1" vertex="1">
          <mxGeometry x="814" y="-528" width="40" height="47" as="geometry" />
        </mxCell>
        <mxCell id="316" value="23" style="rounded=0;whiteSpace=wrap;html=1;" parent="1" vertex="1">
          <mxGeometry x="814" y="-481" width="40" height="47" as="geometry" />
        </mxCell>
        <mxCell id="317" value="Y" style="rounded=0;whiteSpace=wrap;html=1;" parent="1" vertex="1">
          <mxGeometry x="854" y="-528" width="40" height="47" as="geometry" />
        </mxCell>
        <mxCell id="318" value="24" style="rounded=0;whiteSpace=wrap;html=1;" parent="1" vertex="1">
          <mxGeometry x="854" y="-481" width="40" height="47" as="geometry" />
        </mxCell>
        <mxCell id="319" value="Z" style="rounded=0;whiteSpace=wrap;html=1;" parent="1" vertex="1">
          <mxGeometry x="894" y="-528" width="40" height="47" as="geometry" />
        </mxCell>
        <mxCell id="320" value="25" style="rounded=0;whiteSpace=wrap;html=1;" parent="1" vertex="1">
          <mxGeometry x="894" y="-481" width="40" height="47" as="geometry" />
        </mxCell>
        <mxCell id="321" value="a" style="rounded=0;whiteSpace=wrap;html=1;" parent="1" vertex="1">
          <mxGeometry x="-106.5" y="-405" width="40" height="47" as="geometry" />
        </mxCell>
        <mxCell id="322" value="26" style="rounded=0;whiteSpace=wrap;html=1;" parent="1" vertex="1">
          <mxGeometry x="-106.5" y="-358" width="40" height="47" as="geometry" />
        </mxCell>
        <mxCell id="323" value="b" style="rounded=0;whiteSpace=wrap;html=1;" parent="1" vertex="1">
          <mxGeometry x="-66.5" y="-405" width="40" height="47" as="geometry" />
        </mxCell>
        <mxCell id="324" value="27" style="rounded=0;whiteSpace=wrap;html=1;" parent="1" vertex="1">
          <mxGeometry x="-66.5" y="-358" width="40" height="47" as="geometry" />
        </mxCell>
        <mxCell id="325" value="c" style="rounded=0;whiteSpace=wrap;html=1;" parent="1" vertex="1">
          <mxGeometry x="-26.5" y="-405" width="40" height="47" as="geometry" />
        </mxCell>
        <mxCell id="326" value="28" style="rounded=0;whiteSpace=wrap;html=1;" parent="1" vertex="1">
          <mxGeometry x="-26.5" y="-358" width="40" height="47" as="geometry" />
        </mxCell>
        <mxCell id="327" value="d" style="rounded=0;whiteSpace=wrap;html=1;" parent="1" vertex="1">
          <mxGeometry x="13.5" y="-405" width="40" height="47" as="geometry" />
        </mxCell>
        <mxCell id="328" value="29" style="rounded=0;whiteSpace=wrap;html=1;" parent="1" vertex="1">
          <mxGeometry x="13.5" y="-358" width="40" height="47" as="geometry" />
        </mxCell>
        <mxCell id="329" value="e" style="rounded=0;whiteSpace=wrap;html=1;" parent="1" vertex="1">
          <mxGeometry x="53.5" y="-405" width="40" height="47" as="geometry" />
        </mxCell>
        <mxCell id="330" value="30" style="rounded=0;whiteSpace=wrap;html=1;" parent="1" vertex="1">
          <mxGeometry x="53.5" y="-358" width="40" height="47" as="geometry" />
        </mxCell>
        <mxCell id="331" value="f" style="rounded=0;whiteSpace=wrap;html=1;" parent="1" vertex="1">
          <mxGeometry x="93.5" y="-405" width="40" height="47" as="geometry" />
        </mxCell>
        <mxCell id="332" value="31" style="rounded=0;whiteSpace=wrap;html=1;" parent="1" vertex="1">
          <mxGeometry x="93.5" y="-358" width="40" height="47" as="geometry" />
        </mxCell>
        <mxCell id="333" value="g" style="rounded=0;whiteSpace=wrap;html=1;" parent="1" vertex="1">
          <mxGeometry x="133.5" y="-405" width="40" height="47" as="geometry" />
        </mxCell>
        <mxCell id="334" value="32" style="rounded=0;whiteSpace=wrap;html=1;" parent="1" vertex="1">
          <mxGeometry x="133.5" y="-358" width="40" height="47" as="geometry" />
        </mxCell>
        <mxCell id="335" value="h" style="rounded=0;whiteSpace=wrap;html=1;" parent="1" vertex="1">
          <mxGeometry x="173.5" y="-405" width="40" height="47" as="geometry" />
        </mxCell>
        <mxCell id="336" value="33" style="rounded=0;whiteSpace=wrap;html=1;" parent="1" vertex="1">
          <mxGeometry x="173.5" y="-358" width="40" height="47" as="geometry" />
        </mxCell>
        <mxCell id="337" value="i" style="rounded=0;whiteSpace=wrap;html=1;" parent="1" vertex="1">
          <mxGeometry x="213.5" y="-405" width="40" height="47" as="geometry" />
        </mxCell>
        <mxCell id="338" value="34" style="rounded=0;whiteSpace=wrap;html=1;" parent="1" vertex="1">
          <mxGeometry x="213.5" y="-358" width="40" height="47" as="geometry" />
        </mxCell>
        <mxCell id="339" value="j" style="rounded=0;whiteSpace=wrap;html=1;" parent="1" vertex="1">
          <mxGeometry x="253.5" y="-405" width="40" height="47" as="geometry" />
        </mxCell>
        <mxCell id="340" value="35" style="rounded=0;whiteSpace=wrap;html=1;" parent="1" vertex="1">
          <mxGeometry x="253.5" y="-358" width="40" height="47" as="geometry" />
        </mxCell>
        <mxCell id="341" value="k" style="rounded=0;whiteSpace=wrap;html=1;" parent="1" vertex="1">
          <mxGeometry x="293.5" y="-405" width="40" height="47" as="geometry" />
        </mxCell>
        <mxCell id="342" value="36" style="rounded=0;whiteSpace=wrap;html=1;" parent="1" vertex="1">
          <mxGeometry x="293.5" y="-358" width="40" height="47" as="geometry" />
        </mxCell>
        <mxCell id="343" value="l" style="rounded=0;whiteSpace=wrap;html=1;" parent="1" vertex="1">
          <mxGeometry x="333.5" y="-405" width="40" height="47" as="geometry" />
        </mxCell>
        <mxCell id="344" value="37" style="rounded=0;whiteSpace=wrap;html=1;" parent="1" vertex="1">
          <mxGeometry x="333.5" y="-358" width="40" height="47" as="geometry" />
        </mxCell>
        <mxCell id="345" value="m" style="rounded=0;whiteSpace=wrap;html=1;" parent="1" vertex="1">
          <mxGeometry x="373.5" y="-405" width="40" height="47" as="geometry" />
        </mxCell>
        <mxCell id="346" value="38" style="rounded=0;whiteSpace=wrap;html=1;" parent="1" vertex="1">
          <mxGeometry x="373.5" y="-358" width="40" height="47" as="geometry" />
        </mxCell>
        <mxCell id="347" value="n" style="rounded=0;whiteSpace=wrap;html=1;" parent="1" vertex="1">
          <mxGeometry x="413.5" y="-405" width="40" height="47" as="geometry" />
        </mxCell>
        <mxCell id="348" value="39" style="rounded=0;whiteSpace=wrap;html=1;" parent="1" vertex="1">
          <mxGeometry x="413.5" y="-358" width="40" height="47" as="geometry" />
        </mxCell>
        <mxCell id="349" value="o" style="rounded=0;whiteSpace=wrap;html=1;" parent="1" vertex="1">
          <mxGeometry x="453.5" y="-405" width="40" height="47" as="geometry" />
        </mxCell>
        <mxCell id="350" value="40" style="rounded=0;whiteSpace=wrap;html=1;" parent="1" vertex="1">
          <mxGeometry x="453.5" y="-358" width="40" height="47" as="geometry" />
        </mxCell>
        <mxCell id="351" value="p" style="rounded=0;whiteSpace=wrap;html=1;" parent="1" vertex="1">
          <mxGeometry x="493.5" y="-405" width="40" height="47" as="geometry" />
        </mxCell>
        <mxCell id="352" value="41" style="rounded=0;whiteSpace=wrap;html=1;" parent="1" vertex="1">
          <mxGeometry x="493.5" y="-358" width="40" height="47" as="geometry" />
        </mxCell>
        <mxCell id="353" value="q" style="rounded=0;whiteSpace=wrap;html=1;" parent="1" vertex="1">
          <mxGeometry x="534.5" y="-405" width="40" height="47" as="geometry" />
        </mxCell>
        <mxCell id="354" value="42" style="rounded=0;whiteSpace=wrap;html=1;" parent="1" vertex="1">
          <mxGeometry x="534.5" y="-358" width="40" height="47" as="geometry" />
        </mxCell>
        <mxCell id="355" value="r" style="rounded=0;whiteSpace=wrap;html=1;" parent="1" vertex="1">
          <mxGeometry x="574.5" y="-405" width="40" height="47" as="geometry" />
        </mxCell>
        <mxCell id="356" value="43" style="rounded=0;whiteSpace=wrap;html=1;" parent="1" vertex="1">
          <mxGeometry x="574.5" y="-358" width="40" height="47" as="geometry" />
        </mxCell>
        <mxCell id="357" value="s" style="rounded=0;whiteSpace=wrap;html=1;" parent="1" vertex="1">
          <mxGeometry x="614.5" y="-405" width="40" height="47" as="geometry" />
        </mxCell>
        <mxCell id="358" value="44" style="rounded=0;whiteSpace=wrap;html=1;" parent="1" vertex="1">
          <mxGeometry x="614.5" y="-358" width="40" height="47" as="geometry" />
        </mxCell>
        <mxCell id="359" value="t" style="rounded=0;whiteSpace=wrap;html=1;" parent="1" vertex="1">
          <mxGeometry x="654.5" y="-405" width="40" height="47" as="geometry" />
        </mxCell>
        <mxCell id="360" value="45" style="rounded=0;whiteSpace=wrap;html=1;" parent="1" vertex="1">
          <mxGeometry x="654.5" y="-358" width="40" height="47" as="geometry" />
        </mxCell>
        <mxCell id="361" value="u" style="rounded=0;whiteSpace=wrap;html=1;" parent="1" vertex="1">
          <mxGeometry x="694.5" y="-405" width="40" height="47" as="geometry" />
        </mxCell>
        <mxCell id="362" value="46" style="rounded=0;whiteSpace=wrap;html=1;" parent="1" vertex="1">
          <mxGeometry x="694.5" y="-358" width="40" height="47" as="geometry" />
        </mxCell>
        <mxCell id="363" value="v" style="rounded=0;whiteSpace=wrap;html=1;" parent="1" vertex="1">
          <mxGeometry x="734.5" y="-405" width="40" height="47" as="geometry" />
        </mxCell>
        <mxCell id="364" value="47" style="rounded=0;whiteSpace=wrap;html=1;" parent="1" vertex="1">
          <mxGeometry x="734.5" y="-358" width="40" height="47" as="geometry" />
        </mxCell>
        <mxCell id="365" value="w" style="rounded=0;whiteSpace=wrap;html=1;" parent="1" vertex="1">
          <mxGeometry x="774.5" y="-405" width="40" height="47" as="geometry" />
        </mxCell>
        <mxCell id="366" value="48" style="rounded=0;whiteSpace=wrap;html=1;" parent="1" vertex="1">
          <mxGeometry x="774.5" y="-358" width="40" height="47" as="geometry" />
        </mxCell>
        <mxCell id="367" value="x" style="rounded=0;whiteSpace=wrap;html=1;" parent="1" vertex="1">
          <mxGeometry x="814.5" y="-405" width="40" height="47" as="geometry" />
        </mxCell>
        <mxCell id="368" value="49" style="rounded=0;whiteSpace=wrap;html=1;" parent="1" vertex="1">
          <mxGeometry x="814.5" y="-358" width="40" height="47" as="geometry" />
        </mxCell>
        <mxCell id="369" value="y" style="rounded=0;whiteSpace=wrap;html=1;" parent="1" vertex="1">
          <mxGeometry x="854.5" y="-405" width="40" height="47" as="geometry" />
        </mxCell>
        <mxCell id="370" value="50" style="rounded=0;whiteSpace=wrap;html=1;" parent="1" vertex="1">
          <mxGeometry x="854.5" y="-358" width="40" height="47" as="geometry" />
        </mxCell>
        <mxCell id="371" value="z" style="rounded=0;whiteSpace=wrap;html=1;" parent="1" vertex="1">
          <mxGeometry x="894.5" y="-405" width="40" height="47" as="geometry" />
        </mxCell>
        <mxCell id="372" value="51" style="rounded=0;whiteSpace=wrap;html=1;" parent="1" vertex="1">
          <mxGeometry x="894.5" y="-358" width="40" height="47" as="geometry" />
        </mxCell>
        <mxCell id="373" value="0" style="rounded=0;whiteSpace=wrap;html=1;" parent="1" vertex="1">
          <mxGeometry x="-106.5" y="-276" width="40" height="47" as="geometry" />
        </mxCell>
        <mxCell id="374" value="52" style="rounded=0;whiteSpace=wrap;html=1;" parent="1" vertex="1">
          <mxGeometry x="-106.5" y="-229" width="40" height="47" as="geometry" />
        </mxCell>
        <mxCell id="375" value="1" style="rounded=0;whiteSpace=wrap;html=1;" parent="1" vertex="1">
          <mxGeometry x="-66.5" y="-276" width="40" height="47" as="geometry" />
        </mxCell>
        <mxCell id="376" value="53" style="rounded=0;whiteSpace=wrap;html=1;" parent="1" vertex="1">
          <mxGeometry x="-66.5" y="-229" width="40" height="47" as="geometry" />
        </mxCell>
        <mxCell id="377" value="2" style="rounded=0;whiteSpace=wrap;html=1;" parent="1" vertex="1">
          <mxGeometry x="-26.5" y="-276" width="40" height="47" as="geometry" />
        </mxCell>
        <mxCell id="378" value="54" style="rounded=0;whiteSpace=wrap;html=1;" parent="1" vertex="1">
          <mxGeometry x="-26.5" y="-229" width="40" height="47" as="geometry" />
        </mxCell>
        <mxCell id="379" value="3" style="rounded=0;whiteSpace=wrap;html=1;" parent="1" vertex="1">
          <mxGeometry x="13.5" y="-276" width="40" height="47" as="geometry" />
        </mxCell>
        <mxCell id="380" value="55" style="rounded=0;whiteSpace=wrap;html=1;" parent="1" vertex="1">
          <mxGeometry x="13.5" y="-229" width="40" height="47" as="geometry" />
        </mxCell>
        <mxCell id="381" value="4" style="rounded=0;whiteSpace=wrap;html=1;" parent="1" vertex="1">
          <mxGeometry x="53.5" y="-276" width="40" height="47" as="geometry" />
        </mxCell>
        <mxCell id="382" value="56" style="rounded=0;whiteSpace=wrap;html=1;" parent="1" vertex="1">
          <mxGeometry x="53.5" y="-229" width="40" height="47" as="geometry" />
        </mxCell>
        <mxCell id="383" value="5" style="rounded=0;whiteSpace=wrap;html=1;" parent="1" vertex="1">
          <mxGeometry x="93.5" y="-276" width="40" height="47" as="geometry" />
        </mxCell>
        <mxCell id="384" value="57" style="rounded=0;whiteSpace=wrap;html=1;" parent="1" vertex="1">
          <mxGeometry x="93.5" y="-229" width="40" height="47" as="geometry" />
        </mxCell>
        <mxCell id="385" value="6" style="rounded=0;whiteSpace=wrap;html=1;" parent="1" vertex="1">
          <mxGeometry x="133.5" y="-276" width="40" height="47" as="geometry" />
        </mxCell>
        <mxCell id="386" value="58" style="rounded=0;whiteSpace=wrap;html=1;" parent="1" vertex="1">
          <mxGeometry x="133.5" y="-229" width="40" height="47" as="geometry" />
        </mxCell>
        <mxCell id="387" value="7" style="rounded=0;whiteSpace=wrap;html=1;" parent="1" vertex="1">
          <mxGeometry x="173.5" y="-276" width="41.5" height="47" as="geometry" />
        </mxCell>
        <mxCell id="388" value="59" style="rounded=0;whiteSpace=wrap;html=1;" parent="1" vertex="1">
          <mxGeometry x="173.5" y="-229" width="40" height="47" as="geometry" />
        </mxCell>
        <mxCell id="389" value="8" style="rounded=0;whiteSpace=wrap;html=1;" parent="1" vertex="1">
          <mxGeometry x="213.5" y="-276" width="40" height="47" as="geometry" />
        </mxCell>
        <mxCell id="390" value="60" style="rounded=0;whiteSpace=wrap;html=1;" parent="1" vertex="1">
          <mxGeometry x="213.5" y="-229" width="40" height="47" as="geometry" />
        </mxCell>
        <mxCell id="391" value="9" style="rounded=0;whiteSpace=wrap;html=1;" parent="1" vertex="1">
          <mxGeometry x="253.5" y="-276" width="40" height="47" as="geometry" />
        </mxCell>
        <mxCell id="392" value="61" style="rounded=0;whiteSpace=wrap;html=1;" parent="1" vertex="1">
          <mxGeometry x="253.5" y="-229" width="40" height="47" as="geometry" />
        </mxCell>
        <mxCell id="393" value="+" style="rounded=0;whiteSpace=wrap;html=1;" parent="1" vertex="1">
          <mxGeometry x="333" y="-276" width="40" height="47" as="geometry" />
        </mxCell>
        <mxCell id="394" value="62" style="rounded=0;whiteSpace=wrap;html=1;" parent="1" vertex="1">
          <mxGeometry x="333" y="-229" width="40" height="47" as="geometry" />
        </mxCell>
        <mxCell id="397" value="/" style="rounded=0;whiteSpace=wrap;html=1;" parent="1" vertex="1">
          <mxGeometry x="373.5" y="-276" width="40" height="47" as="geometry" />
        </mxCell>
        <mxCell id="398" value="63" style="rounded=0;whiteSpace=wrap;html=1;" parent="1" vertex="1">
          <mxGeometry x="373.5" y="-229" width="40" height="47" as="geometry" />
        </mxCell>
        <mxCell id="399" value="&lt;font style=&quot;font-size: 48px;&quot;&gt;&lt;b&gt;Base 64 索引表&lt;/b&gt;&lt;/font&gt;" style="text;html=1;align=center;verticalAlign=middle;resizable=0;points=[];autosize=1;strokeColor=none;fillColor=none;" parent="1" vertex="1">
          <mxGeometry x="239" y="-609" width="357" height="70" as="geometry" />
        </mxCell>
        <mxCell id="426" style="edgeStyle=none;html=1;entryX=1;entryY=0;entryDx=0;entryDy=0;fontSize=48;" parent="1" source="416" target="422" edge="1">
          <mxGeometry relative="1" as="geometry" />
        </mxCell>
        <mxCell id="416" value="" style="shape=curlyBracket;whiteSpace=wrap;html=1;rounded=1;labelPosition=left;verticalLabelPosition=middle;align=right;verticalAlign=middle;fontSize=48;rotation=-90;" parent="1" vertex="1">
          <mxGeometry x="83.5" y="347" width="20" height="240" as="geometry" />
        </mxCell>
        <mxCell id="438" style="edgeStyle=none;html=1;" parent="1" source="417" target="431" edge="1">
          <mxGeometry relative="1" as="geometry" />
        </mxCell>
        <mxCell id="417" value="" style="shape=curlyBracket;whiteSpace=wrap;html=1;rounded=1;labelPosition=left;verticalLabelPosition=middle;align=right;verticalAlign=middle;fontSize=48;rotation=-90;" parent="1" vertex="1">
          <mxGeometry x="323" y="347" width="20" height="240" as="geometry" />
        </mxCell>
        <mxCell id="448" style="edgeStyle=none;html=1;entryX=0.5;entryY=0;entryDx=0;entryDy=0;" parent="1" source="418" target="441" edge="1">
          <mxGeometry relative="1" as="geometry" />
        </mxCell>
        <mxCell id="418" value="" style="shape=curlyBracket;whiteSpace=wrap;html=1;rounded=1;labelPosition=left;verticalLabelPosition=middle;align=right;verticalAlign=middle;fontSize=48;rotation=-90;" parent="1" vertex="1">
          <mxGeometry x="564" y="347" width="20" height="240" as="geometry" />
        </mxCell>
        <mxCell id="419" value="0" style="rounded=0;whiteSpace=wrap;html=1;" parent="1" vertex="1">
          <mxGeometry x="-305.5" y="829.5" width="40" height="47" as="geometry" />
        </mxCell>
        <mxCell id="420" value="1" style="rounded=0;whiteSpace=wrap;html=1;" parent="1" vertex="1">
          <mxGeometry x="-265.5" y="829.5" width="40" height="47" as="geometry" />
        </mxCell>
        <mxCell id="421" value="0" style="rounded=0;whiteSpace=wrap;html=1;" parent="1" vertex="1">
          <mxGeometry x="-185.5" y="829.5" width="40" height="47" as="geometry" />
        </mxCell>
        <mxCell id="422" value="0" style="rounded=0;whiteSpace=wrap;html=1;" parent="1" vertex="1">
          <mxGeometry x="-225.5" y="829.5" width="40" height="47" as="geometry" />
        </mxCell>
        <mxCell id="423" value="1" style="rounded=0;whiteSpace=wrap;html=1;" parent="1" vertex="1">
          <mxGeometry x="-105.5" y="829.5" width="40" height="47" as="geometry" />
        </mxCell>
        <mxCell id="424" value="1" style="rounded=0;whiteSpace=wrap;html=1;" parent="1" vertex="1">
          <mxGeometry x="-145.5" y="829.5" width="40" height="47" as="geometry" />
        </mxCell>
        <mxCell id="427" value="0" style="rounded=0;whiteSpace=wrap;html=1;fillColor=#60a917;fontColor=#ffffff;strokeColor=#2D7600;" parent="1" vertex="1">
          <mxGeometry x="-385.5" y="829.5" width="40" height="47" as="geometry" />
        </mxCell>
        <mxCell id="428" value="0" style="rounded=0;whiteSpace=wrap;html=1;fillColor=#60a917;fontColor=#ffffff;strokeColor=#2D7600;" parent="1" vertex="1">
          <mxGeometry x="-345.5" y="829.5" width="40" height="47" as="geometry" />
        </mxCell>
        <mxCell id="429" value="0" style="rounded=0;whiteSpace=wrap;html=1;" parent="1" vertex="1">
          <mxGeometry x="128.5" y="829.5" width="40" height="47" as="geometry" />
        </mxCell>
        <mxCell id="430" value="1" style="rounded=0;whiteSpace=wrap;html=1;" parent="1" vertex="1">
          <mxGeometry x="168.5" y="829.5" width="40" height="47" as="geometry" />
        </mxCell>
        <mxCell id="431" value="0" style="rounded=0;whiteSpace=wrap;html=1;" parent="1" vertex="1">
          <mxGeometry x="208.5" y="829.5" width="40" height="47" as="geometry" />
        </mxCell>
        <mxCell id="432" value="1" style="rounded=0;whiteSpace=wrap;html=1;" parent="1" vertex="1">
          <mxGeometry x="288.5" y="829.5" width="40" height="47" as="geometry" />
        </mxCell>
        <mxCell id="433" value="1" style="rounded=0;whiteSpace=wrap;html=1;" parent="1" vertex="1">
          <mxGeometry x="248.5" y="829.5" width="40" height="47" as="geometry" />
        </mxCell>
        <mxCell id="434" value="0" style="rounded=0;whiteSpace=wrap;html=1;" parent="1" vertex="1">
          <mxGeometry x="328.5" y="829.5" width="40" height="47" as="geometry" />
        </mxCell>
        <mxCell id="436" value="0" style="rounded=0;whiteSpace=wrap;html=1;fillColor=#60a917;fontColor=#ffffff;strokeColor=#2D7600;" parent="1" vertex="1">
          <mxGeometry x="48.5" y="829.5" width="40" height="47" as="geometry" />
        </mxCell>
        <mxCell id="437" value="0" style="rounded=0;whiteSpace=wrap;html=1;fillColor=#60a917;fontColor=#ffffff;strokeColor=#2D7600;" parent="1" vertex="1">
          <mxGeometry x="88.5" y="829.5" width="40" height="47" as="geometry" />
        </mxCell>
        <mxCell id="439" value="0" style="rounded=0;whiteSpace=wrap;html=1;" parent="1" vertex="1">
          <mxGeometry x="573" y="823.5" width="40" height="47" as="geometry" />
        </mxCell>
        <mxCell id="440" value="0" style="rounded=0;whiteSpace=wrap;html=1;" parent="1" vertex="1">
          <mxGeometry x="613" y="823.5" width="40" height="47" as="geometry" />
        </mxCell>
        <mxCell id="441" value="0" style="rounded=0;whiteSpace=wrap;html=1;" parent="1" vertex="1">
          <mxGeometry x="653" y="823.5" width="40" height="47" as="geometry" />
        </mxCell>
        <mxCell id="442" value="1" style="rounded=0;whiteSpace=wrap;html=1;" parent="1" vertex="1">
          <mxGeometry x="693" y="823.5" width="40" height="47" as="geometry" />
        </mxCell>
        <mxCell id="444" value="0" style="rounded=0;whiteSpace=wrap;html=1;fillColor=default;fontColor=#ffffff;strokeColor=default;" parent="1" vertex="1">
          <mxGeometry x="733" y="823.5" width="40" height="47" as="geometry" />
        </mxCell>
        <mxCell id="445" value="1" style="rounded=0;whiteSpace=wrap;html=1;fillColor=default;fontColor=#ffffff;strokeColor=default;" parent="1" vertex="1">
          <mxGeometry x="773" y="823.5" width="40" height="47" as="geometry" />
        </mxCell>
        <mxCell id="446" value="0" style="rounded=0;whiteSpace=wrap;html=1;fillColor=#60a917;fontColor=#ffffff;strokeColor=#2D7600;" parent="1" vertex="1">
          <mxGeometry x="492.5" y="823.5" width="40" height="47" as="geometry" />
        </mxCell>
        <mxCell id="447" value="0" style="rounded=0;whiteSpace=wrap;html=1;fillColor=#60a917;fontColor=#ffffff;strokeColor=#2D7600;" parent="1" vertex="1">
          <mxGeometry x="532.5" y="823.5" width="40" height="47" as="geometry" />
        </mxCell>
        <mxCell id="450" value="19对应base64索引表中的T" style="text;html=1;align=center;verticalAlign=middle;resizable=0;points=[];autosize=1;strokeColor=none;fillColor=none;fontSize=24;fontStyle=1" parent="1" vertex="1">
          <mxGeometry x="-390" y="898" width="309" height="41" as="geometry" />
        </mxCell>
        <mxCell id="485" value="" style="endArrow=none;dashed=1;html=1;fontSize=12;" parent="1" edge="1">
          <mxGeometry width="50" height="50" relative="1" as="geometry">
            <mxPoint x="293.18" y="523" as="sourcePoint" />
            <mxPoint x="293" y="338" as="targetPoint" />
          </mxGeometry>
        </mxCell>
        <mxCell id="520" value="" style="childLayout=tableLayout;recursiveResize=0;shadow=0;fillColor=none;" parent="1" vertex="1">
          <mxGeometry x="3707" y="-33" width="784" height="47" as="geometry" />
        </mxCell>
        <mxCell id="521" value="" style="shape=tableRow;horizontal=0;startSize=0;swimlaneHead=0;swimlaneBody=0;top=0;left=0;bottom=0;right=0;dropTarget=0;collapsible=0;recursiveResize=0;expand=0;fontStyle=0;fillColor=none;strokeColor=inherit;" parent="520" vertex="1">
          <mxGeometry width="784" height="47" as="geometry" />
        </mxCell>
        <mxCell id="522" value="Text content" style="connectable=0;recursiveResize=0;strokeColor=inherit;fillColor=none;align=center;whiteSpace=wrap;html=1;" parent="521" vertex="1">
          <mxGeometry width="144" height="47" as="geometry">
            <mxRectangle width="144" height="47" as="alternateBounds" />
          </mxGeometry>
        </mxCell>
        <mxCell id="523" value="M" style="connectable=0;recursiveResize=0;strokeColor=inherit;fillColor=none;align=center;whiteSpace=wrap;html=1;" parent="521" vertex="1">
          <mxGeometry x="144" width="320" height="47" as="geometry">
            <mxRectangle width="320" height="47" as="alternateBounds" />
          </mxGeometry>
        </mxCell>
        <mxCell id="524" value="a" style="connectable=0;recursiveResize=0;strokeColor=inherit;fillColor=none;align=center;whiteSpace=wrap;html=1;" parent="521" vertex="1">
          <mxGeometry x="464" width="320" height="47" as="geometry">
            <mxRectangle width="320" height="47" as="alternateBounds" />
          </mxGeometry>
        </mxCell>
        <mxCell id="525" value="" style="childLayout=tableLayout;recursiveResize=0;shadow=0;fillColor=none;" parent="1" vertex="1">
          <mxGeometry x="3707" y="14" width="784" height="47" as="geometry" />
        </mxCell>
        <mxCell id="526" value="" style="shape=tableRow;horizontal=0;startSize=0;swimlaneHead=0;swimlaneBody=0;top=0;left=0;bottom=0;right=0;dropTarget=0;collapsible=0;recursiveResize=0;expand=0;fontStyle=0;fillColor=none;strokeColor=inherit;" parent="525" vertex="1">
          <mxGeometry width="784" height="47" as="geometry" />
        </mxCell>
        <mxCell id="527" value="ASCII" style="connectable=0;recursiveResize=0;strokeColor=inherit;fillColor=none;align=center;whiteSpace=wrap;html=1;" parent="526" vertex="1">
          <mxGeometry width="144" height="47" as="geometry">
            <mxRectangle width="144" height="47" as="alternateBounds" />
          </mxGeometry>
        </mxCell>
        <mxCell id="528" value="77" style="connectable=0;recursiveResize=0;strokeColor=inherit;fillColor=none;align=center;whiteSpace=wrap;html=1;" parent="526" vertex="1">
          <mxGeometry x="144" width="320" height="47" as="geometry">
            <mxRectangle width="320" height="47" as="alternateBounds" />
          </mxGeometry>
        </mxCell>
        <mxCell id="529" value="97" style="connectable=0;recursiveResize=0;strokeColor=inherit;fillColor=none;align=center;whiteSpace=wrap;html=1;" parent="526" vertex="1">
          <mxGeometry x="464" width="320" height="47" as="geometry">
            <mxRectangle width="320" height="47" as="alternateBounds" />
          </mxGeometry>
        </mxCell>
        <mxCell id="530" value="Bit pattern" style="rounded=0;whiteSpace=wrap;html=1;" parent="1" vertex="1">
          <mxGeometry x="3707" y="61" width="144" height="47" as="geometry" />
        </mxCell>
        <mxCell id="531" value="0" style="rounded=0;whiteSpace=wrap;html=1;" parent="1" vertex="1">
          <mxGeometry x="3851" y="61" width="40" height="47" as="geometry" />
        </mxCell>
        <mxCell id="532" value="1" style="rounded=0;whiteSpace=wrap;html=1;" parent="1" vertex="1">
          <mxGeometry x="3891" y="61" width="40" height="47" as="geometry" />
        </mxCell>
        <mxCell id="533" value="0" style="rounded=0;whiteSpace=wrap;html=1;" parent="1" vertex="1">
          <mxGeometry x="3971" y="61" width="40" height="47" as="geometry" />
        </mxCell>
        <mxCell id="534" value="0" style="rounded=0;whiteSpace=wrap;html=1;" parent="1" vertex="1">
          <mxGeometry x="3931" y="61" width="40" height="47" as="geometry" />
        </mxCell>
        <mxCell id="535" value="1" style="rounded=0;whiteSpace=wrap;html=1;" parent="1" vertex="1">
          <mxGeometry x="4051" y="61" width="40" height="47" as="geometry" />
        </mxCell>
        <mxCell id="536" value="1" style="rounded=0;whiteSpace=wrap;html=1;" parent="1" vertex="1">
          <mxGeometry x="4011" y="61" width="40" height="47" as="geometry" />
        </mxCell>
        <mxCell id="537" value="0" style="rounded=0;whiteSpace=wrap;html=1;" parent="1" vertex="1">
          <mxGeometry x="4091" y="61" width="40" height="47" as="geometry" />
        </mxCell>
        <mxCell id="538" value="1" style="rounded=0;whiteSpace=wrap;html=1;" parent="1" vertex="1">
          <mxGeometry x="4131" y="61" width="40" height="47" as="geometry" />
        </mxCell>
        <mxCell id="539" value="0" style="rounded=0;whiteSpace=wrap;html=1;" parent="1" vertex="1">
          <mxGeometry x="4171" y="61" width="40" height="47" as="geometry" />
        </mxCell>
        <mxCell id="540" value="1" style="rounded=0;whiteSpace=wrap;html=1;" parent="1" vertex="1">
          <mxGeometry x="4251" y="61" width="40" height="47" as="geometry" />
        </mxCell>
        <mxCell id="541" value="1" style="rounded=0;whiteSpace=wrap;html=1;" parent="1" vertex="1">
          <mxGeometry x="4211" y="61" width="40" height="47" as="geometry" />
        </mxCell>
        <mxCell id="542" value="0" style="rounded=0;whiteSpace=wrap;html=1;" parent="1" vertex="1">
          <mxGeometry x="4331" y="61" width="40" height="47" as="geometry" />
        </mxCell>
        <mxCell id="543" value="0" style="rounded=0;whiteSpace=wrap;html=1;" parent="1" vertex="1">
          <mxGeometry x="4291" y="61" width="40" height="47" as="geometry" />
        </mxCell>
        <mxCell id="544" value="0" style="rounded=0;whiteSpace=wrap;html=1;" parent="1" vertex="1">
          <mxGeometry x="4371" y="61" width="40" height="47" as="geometry" />
        </mxCell>
        <mxCell id="545" value="Index" style="rounded=0;whiteSpace=wrap;html=1;" parent="1" vertex="1">
          <mxGeometry x="3707" y="108" width="144" height="47" as="geometry" />
        </mxCell>
        <mxCell id="546" value="19" style="rounded=0;whiteSpace=wrap;html=1;" parent="1" vertex="1">
          <mxGeometry x="3851" y="108" width="240" height="47" as="geometry" />
        </mxCell>
        <mxCell id="547" value="0" style="rounded=0;whiteSpace=wrap;html=1;" parent="1" vertex="1">
          <mxGeometry x="4411" y="61" width="40" height="47" as="geometry" />
        </mxCell>
        <mxCell id="548" value="1" style="rounded=0;whiteSpace=wrap;html=1;" parent="1" vertex="1">
          <mxGeometry x="4451" y="61" width="40" height="47" as="geometry" />
        </mxCell>
        <mxCell id="549" value="22" style="rounded=0;whiteSpace=wrap;html=1;" parent="1" vertex="1">
          <mxGeometry x="4091" y="108" width="240" height="47" as="geometry" />
        </mxCell>
        <mxCell id="551" value="Base64-Encoded" style="rounded=0;whiteSpace=wrap;html=1;" parent="1" vertex="1">
          <mxGeometry x="3707" y="155" width="144" height="47" as="geometry" />
        </mxCell>
        <mxCell id="552" value="T" style="rounded=0;whiteSpace=wrap;html=1;" parent="1" vertex="1">
          <mxGeometry x="3851" y="155" width="240" height="47" as="geometry" />
        </mxCell>
        <mxCell id="553" value="W" style="rounded=0;whiteSpace=wrap;html=1;" parent="1" vertex="1">
          <mxGeometry x="4091" y="155" width="240" height="47" as="geometry" />
        </mxCell>
        <mxCell id="554" value="0" style="rounded=0;whiteSpace=wrap;html=1;" parent="1" vertex="1">
          <mxGeometry x="3788" y="342" width="40" height="47" as="geometry" />
        </mxCell>
        <mxCell id="555" value="1" style="rounded=0;whiteSpace=wrap;html=1;" parent="1" vertex="1">
          <mxGeometry x="3828" y="342" width="40" height="47" as="geometry" />
        </mxCell>
        <mxCell id="556" value="0" style="rounded=0;whiteSpace=wrap;html=1;" parent="1" vertex="1">
          <mxGeometry x="3908" y="342" width="40" height="47" as="geometry" />
        </mxCell>
        <mxCell id="557" value="0" style="rounded=0;whiteSpace=wrap;html=1;" parent="1" vertex="1">
          <mxGeometry x="3868" y="342" width="40" height="47" as="geometry" />
        </mxCell>
        <mxCell id="558" value="1" style="rounded=0;whiteSpace=wrap;html=1;" parent="1" vertex="1">
          <mxGeometry x="3988" y="342" width="40" height="47" as="geometry" />
        </mxCell>
        <mxCell id="559" value="1" style="rounded=0;whiteSpace=wrap;html=1;" parent="1" vertex="1">
          <mxGeometry x="3948" y="342" width="40" height="47" as="geometry" />
        </mxCell>
        <mxCell id="560" value="0" style="rounded=0;whiteSpace=wrap;html=1;" parent="1" vertex="1">
          <mxGeometry x="4028" y="342" width="40" height="47" as="geometry" />
        </mxCell>
        <mxCell id="561" value="1" style="rounded=0;whiteSpace=wrap;html=1;" parent="1" vertex="1">
          <mxGeometry x="4068" y="342" width="40" height="47" as="geometry" />
        </mxCell>
        <mxCell id="562" value="0" style="rounded=0;whiteSpace=wrap;html=1;" parent="1" vertex="1">
          <mxGeometry x="4108" y="342" width="40" height="47" as="geometry" />
        </mxCell>
        <mxCell id="563" value="1" style="rounded=0;whiteSpace=wrap;html=1;" parent="1" vertex="1">
          <mxGeometry x="4188" y="342" width="40" height="47" as="geometry" />
        </mxCell>
        <mxCell id="564" value="1" style="rounded=0;whiteSpace=wrap;html=1;" parent="1" vertex="1">
          <mxGeometry x="4148" y="342" width="40" height="47" as="geometry" />
        </mxCell>
        <mxCell id="565" value="0" style="rounded=0;whiteSpace=wrap;html=1;" parent="1" vertex="1">
          <mxGeometry x="4268" y="342" width="40" height="47" as="geometry" />
        </mxCell>
        <mxCell id="566" value="0" style="rounded=0;whiteSpace=wrap;html=1;" parent="1" vertex="1">
          <mxGeometry x="4228" y="342" width="40" height="47" as="geometry" />
        </mxCell>
        <mxCell id="567" value="0" style="rounded=0;whiteSpace=wrap;html=1;" parent="1" vertex="1">
          <mxGeometry x="4308" y="342" width="40" height="47" as="geometry" />
        </mxCell>
        <mxCell id="568" value="0" style="rounded=0;whiteSpace=wrap;html=1;" parent="1" vertex="1">
          <mxGeometry x="4348" y="342" width="40" height="47" as="geometry" />
        </mxCell>
        <mxCell id="569" value="1" style="rounded=0;whiteSpace=wrap;html=1;" parent="1" vertex="1">
          <mxGeometry x="4388" y="342" width="40" height="47" as="geometry" />
        </mxCell>
        <mxCell id="570" style="edgeStyle=none;html=1;entryX=1;entryY=0;entryDx=0;entryDy=0;fontSize=48;" parent="1" source="571" target="579" edge="1">
          <mxGeometry relative="1" as="geometry" />
        </mxCell>
        <mxCell id="571" value="" style="shape=curlyBracket;whiteSpace=wrap;html=1;rounded=1;labelPosition=left;verticalLabelPosition=middle;align=right;verticalAlign=middle;fontSize=48;rotation=-90;" parent="1" vertex="1">
          <mxGeometry x="3898.5" y="282" width="20" height="240" as="geometry" />
        </mxCell>
        <mxCell id="572" style="edgeStyle=none;html=1;" parent="1" source="573" target="586" edge="1">
          <mxGeometry relative="1" as="geometry" />
        </mxCell>
        <mxCell id="573" value="" style="shape=curlyBracket;whiteSpace=wrap;html=1;rounded=1;labelPosition=left;verticalLabelPosition=middle;align=right;verticalAlign=middle;fontSize=48;rotation=-90;" parent="1" vertex="1">
          <mxGeometry x="4138" y="282" width="20" height="240" as="geometry" />
        </mxCell>
        <mxCell id="574" style="edgeStyle=none;html=1;entryX=0.5;entryY=0;entryDx=0;entryDy=0;" parent="1" source="575" target="594" edge="1">
          <mxGeometry relative="1" as="geometry" />
        </mxCell>
        <mxCell id="575" value="" style="shape=curlyBracket;whiteSpace=wrap;html=1;rounded=1;labelPosition=left;verticalLabelPosition=middle;align=right;verticalAlign=middle;fontSize=48;rotation=-90;" parent="1" vertex="1">
          <mxGeometry x="4379" y="282" width="20" height="240" as="geometry" />
        </mxCell>
        <mxCell id="576" value="0" style="rounded=0;whiteSpace=wrap;html=1;" parent="1" vertex="1">
          <mxGeometry x="3611" y="588" width="40" height="47" as="geometry" />
        </mxCell>
        <mxCell id="577" value="1" style="rounded=0;whiteSpace=wrap;html=1;" parent="1" vertex="1">
          <mxGeometry x="3651" y="588" width="40" height="47" as="geometry" />
        </mxCell>
        <mxCell id="578" value="0" style="rounded=0;whiteSpace=wrap;html=1;" parent="1" vertex="1">
          <mxGeometry x="3731" y="588" width="40" height="47" as="geometry" />
        </mxCell>
        <mxCell id="579" value="0" style="rounded=0;whiteSpace=wrap;html=1;" parent="1" vertex="1">
          <mxGeometry x="3691" y="588" width="40" height="47" as="geometry" />
        </mxCell>
        <mxCell id="580" value="1" style="rounded=0;whiteSpace=wrap;html=1;" parent="1" vertex="1">
          <mxGeometry x="3811" y="588" width="40" height="47" as="geometry" />
        </mxCell>
        <mxCell id="581" value="1" style="rounded=0;whiteSpace=wrap;html=1;" parent="1" vertex="1">
          <mxGeometry x="3771" y="588" width="40" height="47" as="geometry" />
        </mxCell>
        <mxCell id="582" value="0" style="rounded=0;whiteSpace=wrap;html=1;fillColor=#60a917;fontColor=#ffffff;strokeColor=#2D7600;" parent="1" vertex="1">
          <mxGeometry x="3531" y="588" width="40" height="47" as="geometry" />
        </mxCell>
        <mxCell id="583" value="0" style="rounded=0;whiteSpace=wrap;html=1;fillColor=#60a917;fontColor=#ffffff;strokeColor=#2D7600;" parent="1" vertex="1">
          <mxGeometry x="3571" y="588" width="40" height="47" as="geometry" />
        </mxCell>
        <mxCell id="584" value="0" style="rounded=0;whiteSpace=wrap;html=1;" parent="1" vertex="1">
          <mxGeometry x="4045" y="588" width="40" height="47" as="geometry" />
        </mxCell>
        <mxCell id="585" value="1" style="rounded=0;whiteSpace=wrap;html=1;" parent="1" vertex="1">
          <mxGeometry x="4085" y="588" width="40" height="47" as="geometry" />
        </mxCell>
        <mxCell id="586" value="0" style="rounded=0;whiteSpace=wrap;html=1;" parent="1" vertex="1">
          <mxGeometry x="4125" y="588" width="40" height="47" as="geometry" />
        </mxCell>
        <mxCell id="587" value="1" style="rounded=0;whiteSpace=wrap;html=1;" parent="1" vertex="1">
          <mxGeometry x="4205" y="588" width="40" height="47" as="geometry" />
        </mxCell>
        <mxCell id="588" value="1" style="rounded=0;whiteSpace=wrap;html=1;" parent="1" vertex="1">
          <mxGeometry x="4165" y="588" width="40" height="47" as="geometry" />
        </mxCell>
        <mxCell id="589" value="0" style="rounded=0;whiteSpace=wrap;html=1;" parent="1" vertex="1">
          <mxGeometry x="4245" y="588" width="40" height="47" as="geometry" />
        </mxCell>
        <mxCell id="590" value="0" style="rounded=0;whiteSpace=wrap;html=1;fillColor=#60a917;fontColor=#ffffff;strokeColor=#2D7600;" parent="1" vertex="1">
          <mxGeometry x="3965" y="588" width="40" height="47" as="geometry" />
        </mxCell>
        <mxCell id="591" value="0" style="rounded=0;whiteSpace=wrap;html=1;fillColor=#60a917;fontColor=#ffffff;strokeColor=#2D7600;" parent="1" vertex="1">
          <mxGeometry x="4005" y="588" width="40" height="47" as="geometry" />
        </mxCell>
        <mxCell id="592" value="0" style="rounded=0;whiteSpace=wrap;html=1;" parent="1" vertex="1">
          <mxGeometry x="4489.5" y="582" width="40" height="47" as="geometry" />
        </mxCell>
        <mxCell id="593" value="0" style="rounded=0;whiteSpace=wrap;html=1;" parent="1" vertex="1">
          <mxGeometry x="4529.5" y="582" width="40" height="47" as="geometry" />
        </mxCell>
        <mxCell id="594" value="0" style="rounded=0;whiteSpace=wrap;html=1;" parent="1" vertex="1">
          <mxGeometry x="4569.5" y="582" width="40" height="47" as="geometry" />
        </mxCell>
        <mxCell id="595" value="1" style="rounded=0;whiteSpace=wrap;html=1;" parent="1" vertex="1">
          <mxGeometry x="4609.5" y="582" width="40" height="47" as="geometry" />
        </mxCell>
        <mxCell id="596" value="0" style="rounded=0;whiteSpace=wrap;html=1;fillColor=#60a917;fontColor=#ffffff;strokeColor=#2D7600;" parent="1" vertex="1">
          <mxGeometry x="4649.5" y="582" width="40" height="47" as="geometry" />
        </mxCell>
        <mxCell id="597" value="0" style="rounded=0;whiteSpace=wrap;html=1;fillColor=#60a917;fontColor=#ffffff;strokeColor=#2D7600;" parent="1" vertex="1">
          <mxGeometry x="4689.5" y="582" width="40" height="47" as="geometry" />
        </mxCell>
        <mxCell id="598" value="0" style="rounded=0;whiteSpace=wrap;html=1;fillColor=#60a917;fontColor=#ffffff;strokeColor=#2D7600;" parent="1" vertex="1">
          <mxGeometry x="4409" y="582" width="40" height="47" as="geometry" />
        </mxCell>
        <mxCell id="599" value="0" style="rounded=0;whiteSpace=wrap;html=1;fillColor=#60a917;fontColor=#ffffff;strokeColor=#2D7600;" parent="1" vertex="1">
          <mxGeometry x="4449" y="582" width="40" height="47" as="geometry" />
        </mxCell>
        <mxCell id="600" value="不够6位，后面用0补齐6位，然后再在前面补2个0凑成8位" style="text;html=1;align=center;verticalAlign=middle;resizable=0;points=[];autosize=1;strokeColor=none;fillColor=none;" parent="1" vertex="1">
          <mxGeometry x="4365" y="480" width="322" height="26" as="geometry" />
        </mxCell>
        <mxCell id="601" value="T" style="text;html=1;align=center;verticalAlign=middle;resizable=0;points=[];autosize=1;strokeColor=none;fillColor=none;fontSize=24;fontStyle=1" parent="1" vertex="1">
          <mxGeometry x="3674" y="649" width="33" height="41" as="geometry" />
        </mxCell>
        <mxCell id="602" value="W" style="text;html=1;align=center;verticalAlign=middle;resizable=0;points=[];autosize=1;strokeColor=none;fillColor=none;fontSize=24;fontStyle=1" parent="1" vertex="1">
          <mxGeometry x="4111" y="653" width="41" height="41" as="geometry" />
        </mxCell>
        <mxCell id="603" value="E" style="text;html=1;align=center;verticalAlign=middle;resizable=0;points=[];autosize=1;strokeColor=none;fillColor=none;fontSize=24;fontStyle=1" parent="1" vertex="1">
          <mxGeometry x="4567" y="643" width="34" height="41" as="geometry" />
        </mxCell>
        <mxCell id="604" value="&lt;div style=&quot;text-align: left; font-size: 24px;&quot;&gt;&lt;span style=&quot;background-color: initial; font-size: 24px;&quot;&gt;疑问：为啥用6位分组，凑成1个8位？&lt;/span&gt;&lt;/div&gt;&lt;div style=&quot;text-align: left; font-size: 24px;&quot;&gt;&lt;span style=&quot;background-color: initial; font-size: 24px;&quot;&gt;原因：6位的最大值就是2^6-1，范围就是[0,63] 刚好存下base64的索引值&lt;/span&gt;&lt;/div&gt;" style="text;html=1;align=center;verticalAlign=middle;resizable=0;points=[];autosize=1;strokeColor=#6F0000;fillColor=#a20025;fontSize=24;fontColor=#ffffff;" parent="1" vertex="1">
          <mxGeometry x="5025" y="155" width="788" height="70" as="geometry" />
        </mxCell>
        <mxCell id="605" value="&lt;div style=&quot;text-align: left; font-size: 24px;&quot;&gt;&lt;span style=&quot;background-color: initial; font-size: 24px;&quot;&gt;疑问：base64Encode(&quot;Ma&quot;)，结果：TWE=，为啥结果多了一个=&amp;nbsp;&lt;/span&gt;&lt;/div&gt;&lt;div style=&quot;text-align: left; font-size: 24px;&quot;&gt;&lt;span style=&quot;background-color: initial; font-size: 24px;&quot;&gt;原因：base64的规则，3个字节转，总共24位，每位前面补2位，总共：32位4个字节，&lt;/span&gt;&lt;/div&gt;&lt;div style=&quot;text-align: left; font-size: 24px;&quot;&gt;&lt;span style=&quot;background-color: initial; font-size: 24px;&quot;&gt;由于Ma 分组后只能构成24位，构不成32位&lt;/span&gt;&lt;span style=&quot;background-color: initial;&quot;&gt;，所以用=凑1个出来字节，构成32位4个字节&lt;/span&gt;&lt;/div&gt;&lt;div style=&quot;text-align: left; font-size: 24px;&quot;&gt;&lt;span style=&quot;background-color: initial;&quot;&gt;所以末尾多了一个=&lt;br&gt;&lt;br&gt;&lt;/span&gt;&lt;/div&gt;&lt;div style=&quot;text-align: left; font-size: 24px;&quot;&gt;&lt;span style=&quot;background-color: initial;&quot;&gt;补充：假如是Base64Encode(&#39;M&#39;)，结果：TQ==，就会补两个==&lt;/span&gt;&lt;/div&gt;&lt;div style=&quot;text-align: left; font-size: 24px;&quot;&gt;由于只能M只能分2组出来，不够分出4组，所以另外两组用=来凑&lt;/div&gt;&lt;div style=&quot;text-align: left; font-size: 24px;&quot;&gt;&lt;span style=&quot;background-color: initial;&quot;&gt;&lt;br&gt;&lt;/span&gt;&lt;/div&gt;" style="text;html=1;align=center;verticalAlign=middle;resizable=0;points=[];autosize=1;strokeColor=#6F0000;fillColor=#a20025;fontSize=24;fontColor=#ffffff;" parent="1" vertex="1">
          <mxGeometry x="5037" y="570" width="947" height="242" as="geometry" />
        </mxCell>
        <mxCell id="606" value="" style="endArrow=none;dashed=1;html=1;fontSize=12;" parent="1" edge="1">
          <mxGeometry width="50" height="50" relative="1" as="geometry">
            <mxPoint x="4108.18" y="458" as="sourcePoint" />
            <mxPoint x="4108" y="273" as="targetPoint" />
          </mxGeometry>
        </mxCell>
        <mxCell id="607" value="0" style="rounded=0;whiteSpace=wrap;html=1;" parent="1" vertex="1">
          <mxGeometry x="3896" y="1152" width="40" height="47" as="geometry" />
        </mxCell>
        <mxCell id="608" value="1" style="rounded=0;whiteSpace=wrap;html=1;" parent="1" vertex="1">
          <mxGeometry x="3936" y="1152" width="40" height="47" as="geometry" />
        </mxCell>
        <mxCell id="609" value="0" style="rounded=0;whiteSpace=wrap;html=1;" parent="1" vertex="1">
          <mxGeometry x="4016" y="1152" width="40" height="47" as="geometry" />
        </mxCell>
        <mxCell id="610" value="0" style="rounded=0;whiteSpace=wrap;html=1;" parent="1" vertex="1">
          <mxGeometry x="3976" y="1152" width="40" height="47" as="geometry" />
        </mxCell>
        <mxCell id="611" value="1" style="rounded=0;whiteSpace=wrap;html=1;" parent="1" vertex="1">
          <mxGeometry x="4096" y="1152" width="40" height="47" as="geometry" />
        </mxCell>
        <mxCell id="612" value="1" style="rounded=0;whiteSpace=wrap;html=1;" parent="1" vertex="1">
          <mxGeometry x="4056" y="1152" width="40" height="47" as="geometry" />
        </mxCell>
        <mxCell id="613" value="0" style="rounded=0;whiteSpace=wrap;html=1;" parent="1" vertex="1">
          <mxGeometry x="4136" y="1152" width="40" height="47" as="geometry" />
        </mxCell>
        <mxCell id="614" value="1" style="rounded=0;whiteSpace=wrap;html=1;" parent="1" vertex="1">
          <mxGeometry x="4176" y="1152" width="40" height="47" as="geometry" />
        </mxCell>
        <mxCell id="615" style="edgeStyle=none;html=1;entryX=0.5;entryY=0;entryDx=0;entryDy=0;fontSize=12;" parent="1" source="616" target="621" edge="1">
          <mxGeometry relative="1" as="geometry" />
        </mxCell>
        <mxCell id="616" value="" style="shape=curlyBracket;whiteSpace=wrap;html=1;rounded=1;labelPosition=left;verticalLabelPosition=middle;align=right;verticalAlign=middle;fontSize=48;rotation=-90;" parent="1" vertex="1">
          <mxGeometry x="4006.5" y="1092" width="20" height="240" as="geometry" />
        </mxCell>
        <mxCell id="617" value="" style="endArrow=none;dashed=1;html=1;fontSize=12;" parent="1" edge="1">
          <mxGeometry width="50" height="50" relative="1" as="geometry">
            <mxPoint x="4216.18" y="1268" as="sourcePoint" />
            <mxPoint x="4216" y="1083" as="targetPoint" />
          </mxGeometry>
        </mxCell>
        <mxCell id="618" value="0" style="rounded=0;whiteSpace=wrap;html=1;" parent="1" vertex="1">
          <mxGeometry x="3643" y="1394" width="40" height="47" as="geometry" />
        </mxCell>
        <mxCell id="619" value="1" style="rounded=0;whiteSpace=wrap;html=1;" parent="1" vertex="1">
          <mxGeometry x="3683" y="1394" width="40" height="47" as="geometry" />
        </mxCell>
        <mxCell id="620" value="0" style="rounded=0;whiteSpace=wrap;html=1;" parent="1" vertex="1">
          <mxGeometry x="3763" y="1394" width="40" height="47" as="geometry" />
        </mxCell>
        <mxCell id="621" value="0" style="rounded=0;whiteSpace=wrap;html=1;" parent="1" vertex="1">
          <mxGeometry x="3723" y="1394" width="40" height="47" as="geometry" />
        </mxCell>
        <mxCell id="622" value="1" style="rounded=0;whiteSpace=wrap;html=1;" parent="1" vertex="1">
          <mxGeometry x="3843" y="1394" width="40" height="47" as="geometry" />
        </mxCell>
        <mxCell id="623" value="1" style="rounded=0;whiteSpace=wrap;html=1;" parent="1" vertex="1">
          <mxGeometry x="3803" y="1394" width="40" height="47" as="geometry" />
        </mxCell>
        <mxCell id="624" value="0" style="rounded=0;whiteSpace=wrap;html=1;fillColor=#60a917;fontColor=#ffffff;strokeColor=#2D7600;" parent="1" vertex="1">
          <mxGeometry x="3563" y="1394" width="40" height="47" as="geometry" />
        </mxCell>
        <mxCell id="625" value="0" style="rounded=0;whiteSpace=wrap;html=1;fillColor=#60a917;fontColor=#ffffff;strokeColor=#2D7600;" parent="1" vertex="1">
          <mxGeometry x="3603" y="1394" width="40" height="47" as="geometry" />
        </mxCell>
        <mxCell id="626" value="T" style="text;html=1;align=center;verticalAlign=middle;resizable=0;points=[];autosize=1;strokeColor=none;fillColor=none;fontSize=24;fontStyle=1" parent="1" vertex="1">
          <mxGeometry x="3706" y="1455" width="33" height="41" as="geometry" />
        </mxCell>
        <mxCell id="627" value="0" style="rounded=0;whiteSpace=wrap;html=1;" parent="1" vertex="1">
          <mxGeometry x="4186" y="1388" width="40" height="47" as="geometry" />
        </mxCell>
        <mxCell id="628" value="1" style="rounded=0;whiteSpace=wrap;html=1;" parent="1" vertex="1">
          <mxGeometry x="4226" y="1388" width="40" height="47" as="geometry" />
        </mxCell>
        <mxCell id="629" value="0" style="rounded=0;whiteSpace=wrap;html=1;fillColor=#60a917;fontColor=#ffffff;strokeColor=#2D7600;" parent="1" vertex="1">
          <mxGeometry x="4306" y="1388" width="40" height="47" as="geometry" />
        </mxCell>
        <mxCell id="630" value="0" style="rounded=0;whiteSpace=wrap;html=1;fillColor=#60a917;fontColor=#ffffff;strokeColor=#2D7600;" parent="1" vertex="1">
          <mxGeometry x="4266" y="1388" width="40" height="47" as="geometry" />
        </mxCell>
        <mxCell id="631" value="0" style="rounded=0;whiteSpace=wrap;html=1;fillColor=#60a917;fontColor=#ffffff;strokeColor=#2D7600;" parent="1" vertex="1">
          <mxGeometry x="4386" y="1388" width="40" height="47" as="geometry" />
        </mxCell>
        <mxCell id="632" value="0" style="rounded=0;whiteSpace=wrap;html=1;fillColor=#60a917;fontColor=#ffffff;strokeColor=#2D7600;" parent="1" vertex="1">
          <mxGeometry x="4346" y="1388" width="40" height="47" as="geometry" />
        </mxCell>
        <mxCell id="633" value="0" style="rounded=0;whiteSpace=wrap;html=1;fillColor=#60a917;fontColor=#ffffff;strokeColor=#2D7600;" parent="1" vertex="1">
          <mxGeometry x="4146" y="1388" width="40" height="47" as="geometry" />
        </mxCell>
        <mxCell id="634" value="0" style="rounded=0;whiteSpace=wrap;html=1;fillColor=#60a917;fontColor=#ffffff;strokeColor=#2D7600;" parent="1" vertex="1">
          <mxGeometry x="4106" y="1388" width="40" height="47" as="geometry" />
        </mxCell>
        <mxCell id="635" style="edgeStyle=none;html=1;entryX=0.5;entryY=0;entryDx=0;entryDy=0;fontSize=12;" parent="1" source="636" target="630" edge="1">
          <mxGeometry relative="1" as="geometry" />
        </mxCell>
        <mxCell id="636" value="" style="shape=curlyBracket;whiteSpace=wrap;html=1;rounded=1;labelPosition=left;verticalLabelPosition=middle;align=right;verticalAlign=middle;fontSize=48;rotation=-90;" parent="1" vertex="1">
          <mxGeometry x="4246" y="1089" width="20" height="240" as="geometry" />
        </mxCell>
        <mxCell id="637" value="Q" style="text;html=1;align=center;verticalAlign=middle;resizable=0;points=[];autosize=1;strokeColor=none;fillColor=none;fontSize=24;fontStyle=1" parent="1" vertex="1">
          <mxGeometry x="4244" y="1441" width="37" height="41" as="geometry" />
        </mxCell>
        <mxCell id="638" value="n" style="rounded=0;whiteSpace=wrap;html=1;" parent="1" vertex="1">
          <mxGeometry x="676" y="32" width="319" height="47" as="geometry" />
        </mxCell>
        <mxCell id="639" value="110" style="rounded=0;whiteSpace=wrap;html=1;" parent="1" vertex="1">
          <mxGeometry x="676" y="79" width="319" height="47" as="geometry" />
        </mxCell>
        <mxCell id="640" value="0" style="rounded=0;whiteSpace=wrap;html=1;" parent="1" vertex="1">
          <mxGeometry x="676" y="126" width="40" height="47" as="geometry" />
        </mxCell>
        <mxCell id="641" value="1" style="rounded=0;whiteSpace=wrap;html=1;" parent="1" vertex="1">
          <mxGeometry x="756" y="126" width="40" height="47" as="geometry" />
        </mxCell>
        <mxCell id="642" value="1" style="rounded=0;whiteSpace=wrap;html=1;" parent="1" vertex="1">
          <mxGeometry x="716" y="126" width="40" height="47" as="geometry" />
        </mxCell>
        <mxCell id="643" value="1" style="rounded=0;whiteSpace=wrap;html=1;" parent="1" vertex="1">
          <mxGeometry x="836" y="126" width="40" height="47" as="geometry" />
        </mxCell>
        <mxCell id="644" value="0" style="rounded=0;whiteSpace=wrap;html=1;" parent="1" vertex="1">
          <mxGeometry x="796" y="126" width="40" height="47" as="geometry" />
        </mxCell>
        <mxCell id="645" value="1" style="rounded=0;whiteSpace=wrap;html=1;" parent="1" vertex="1">
          <mxGeometry x="876" y="126" width="40" height="47" as="geometry" />
        </mxCell>
        <mxCell id="646" value="1" style="rounded=0;whiteSpace=wrap;html=1;" parent="1" vertex="1">
          <mxGeometry x="916" y="126" width="40" height="47" as="geometry" />
        </mxCell>
        <mxCell id="647" value="0" style="rounded=0;whiteSpace=wrap;html=1;" parent="1" vertex="1">
          <mxGeometry x="956" y="126" width="40" height="47" as="geometry" />
        </mxCell>
        <mxCell id="648" value="46" style="rounded=0;whiteSpace=wrap;html=1;" parent="1" vertex="1">
          <mxGeometry x="756" y="173" width="240" height="47" as="geometry" />
        </mxCell>
        <mxCell id="649" value="F" style="rounded=0;whiteSpace=wrap;html=1;" parent="1" vertex="1">
          <mxGeometry x="516" y="220" width="240" height="47" as="geometry" />
        </mxCell>
        <mxCell id="650" value="U" style="rounded=0;whiteSpace=wrap;html=1;" parent="1" vertex="1">
          <mxGeometry x="756" y="220" width="240" height="47" as="geometry" />
        </mxCell>
        <mxCell id="651" value="" style="endArrow=none;dashed=1;html=1;fontSize=12;" parent="1" edge="1">
          <mxGeometry width="50" height="50" relative="1" as="geometry">
            <mxPoint x="613.1799999999998" y="522" as="sourcePoint" />
            <mxPoint x="613" y="337" as="targetPoint" />
          </mxGeometry>
        </mxCell>
        <mxCell id="665" value="0" style="rounded=0;whiteSpace=wrap;html=1;" parent="1" vertex="1">
          <mxGeometry x="-27" y="408" width="40" height="47" as="geometry" />
        </mxCell>
        <mxCell id="666" value="1" style="rounded=0;whiteSpace=wrap;html=1;" parent="1" vertex="1">
          <mxGeometry x="13" y="408" width="40" height="47" as="geometry" />
        </mxCell>
        <mxCell id="667" value="0" style="rounded=0;whiteSpace=wrap;html=1;" parent="1" vertex="1">
          <mxGeometry x="93" y="408" width="40" height="47" as="geometry" />
        </mxCell>
        <mxCell id="668" value="0" style="rounded=0;whiteSpace=wrap;html=1;" parent="1" vertex="1">
          <mxGeometry x="53" y="408" width="40" height="47" as="geometry" />
        </mxCell>
        <mxCell id="669" value="1" style="rounded=0;whiteSpace=wrap;html=1;" parent="1" vertex="1">
          <mxGeometry x="173" y="408" width="40" height="47" as="geometry" />
        </mxCell>
        <mxCell id="670" value="1" style="rounded=0;whiteSpace=wrap;html=1;" parent="1" vertex="1">
          <mxGeometry x="133" y="408" width="40" height="47" as="geometry" />
        </mxCell>
        <mxCell id="671" value="0" style="rounded=0;whiteSpace=wrap;html=1;" parent="1" vertex="1">
          <mxGeometry x="213" y="408" width="40" height="47" as="geometry" />
        </mxCell>
        <mxCell id="672" value="1" style="rounded=0;whiteSpace=wrap;html=1;" parent="1" vertex="1">
          <mxGeometry x="253" y="408" width="40" height="47" as="geometry" />
        </mxCell>
        <mxCell id="673" value="0" style="rounded=0;whiteSpace=wrap;html=1;" parent="1" vertex="1">
          <mxGeometry x="293" y="408" width="40" height="47" as="geometry" />
        </mxCell>
        <mxCell id="674" value="1" style="rounded=0;whiteSpace=wrap;html=1;" parent="1" vertex="1">
          <mxGeometry x="373" y="408" width="40" height="47" as="geometry" />
        </mxCell>
        <mxCell id="675" value="1" style="rounded=0;whiteSpace=wrap;html=1;" parent="1" vertex="1">
          <mxGeometry x="333" y="408" width="40" height="47" as="geometry" />
        </mxCell>
        <mxCell id="676" value="0" style="rounded=0;whiteSpace=wrap;html=1;" parent="1" vertex="1">
          <mxGeometry x="453" y="408" width="40" height="47" as="geometry" />
        </mxCell>
        <mxCell id="677" value="0" style="rounded=0;whiteSpace=wrap;html=1;" parent="1" vertex="1">
          <mxGeometry x="413" y="408" width="40" height="47" as="geometry" />
        </mxCell>
        <mxCell id="678" value="0" style="rounded=0;whiteSpace=wrap;html=1;" parent="1" vertex="1">
          <mxGeometry x="493" y="408" width="40" height="47" as="geometry" />
        </mxCell>
        <mxCell id="679" value="0" style="rounded=0;whiteSpace=wrap;html=1;" parent="1" vertex="1">
          <mxGeometry x="533" y="408" width="40" height="47" as="geometry" />
        </mxCell>
        <mxCell id="680" value="1" style="rounded=0;whiteSpace=wrap;html=1;" parent="1" vertex="1">
          <mxGeometry x="573" y="408" width="40" height="47" as="geometry" />
        </mxCell>
        <mxCell id="681" value="0" style="rounded=0;whiteSpace=wrap;html=1;" parent="1" vertex="1">
          <mxGeometry x="613" y="408" width="40" height="47" as="geometry" />
        </mxCell>
        <mxCell id="682" value="1" style="rounded=0;whiteSpace=wrap;html=1;" parent="1" vertex="1">
          <mxGeometry x="693" y="408" width="40" height="47" as="geometry" />
        </mxCell>
        <mxCell id="683" value="1" style="rounded=0;whiteSpace=wrap;html=1;" parent="1" vertex="1">
          <mxGeometry x="653" y="408" width="40" height="47" as="geometry" />
        </mxCell>
        <mxCell id="684" value="1" style="rounded=0;whiteSpace=wrap;html=1;" parent="1" vertex="1">
          <mxGeometry x="773" y="408" width="40" height="47" as="geometry" />
        </mxCell>
        <mxCell id="685" value="0" style="rounded=0;whiteSpace=wrap;html=1;" parent="1" vertex="1">
          <mxGeometry x="733" y="408" width="40" height="47" as="geometry" />
        </mxCell>
        <mxCell id="686" value="1" style="rounded=0;whiteSpace=wrap;html=1;" parent="1" vertex="1">
          <mxGeometry x="813" y="408" width="40" height="47" as="geometry" />
        </mxCell>
        <mxCell id="687" value="1" style="rounded=0;whiteSpace=wrap;html=1;" parent="1" vertex="1">
          <mxGeometry x="853" y="408" width="40" height="47" as="geometry" />
        </mxCell>
        <mxCell id="688" value="0" style="rounded=0;whiteSpace=wrap;html=1;" parent="1" vertex="1">
          <mxGeometry x="893" y="408" width="40" height="47" as="geometry" />
        </mxCell>
        <mxCell id="699" style="edgeStyle=none;html=1;entryX=0.5;entryY=0;entryDx=0;entryDy=0;" parent="1" source="689" target="692" edge="1">
          <mxGeometry relative="1" as="geometry" />
        </mxCell>
        <mxCell id="689" value="" style="shape=curlyBracket;whiteSpace=wrap;html=1;rounded=1;labelPosition=left;verticalLabelPosition=middle;align=right;verticalAlign=middle;fontSize=48;rotation=-90;" parent="1" vertex="1">
          <mxGeometry x="804.5" y="347" width="20" height="240" as="geometry" />
        </mxCell>
        <mxCell id="690" value="1" style="rounded=0;whiteSpace=wrap;html=1;" parent="1" vertex="1">
          <mxGeometry x="1021.5" y="818" width="40" height="47" as="geometry" />
        </mxCell>
        <mxCell id="691" value="0" style="rounded=0;whiteSpace=wrap;html=1;" parent="1" vertex="1">
          <mxGeometry x="1061.5" y="818" width="40" height="47" as="geometry" />
        </mxCell>
        <mxCell id="692" value="1" style="rounded=0;whiteSpace=wrap;html=1;" parent="1" vertex="1">
          <mxGeometry x="1101.5" y="818" width="40" height="47" as="geometry" />
        </mxCell>
        <mxCell id="693" value="1" style="rounded=0;whiteSpace=wrap;html=1;" parent="1" vertex="1">
          <mxGeometry x="1141.5" y="818" width="40" height="47" as="geometry" />
        </mxCell>
        <mxCell id="694" value="1" style="rounded=0;whiteSpace=wrap;html=1;fillColor=default;fontColor=#ffffff;strokeColor=default;" parent="1" vertex="1">
          <mxGeometry x="1181.5" y="818" width="40" height="47" as="geometry" />
        </mxCell>
        <mxCell id="695" value="0" style="rounded=0;whiteSpace=wrap;html=1;fillColor=default;fontColor=#ffffff;strokeColor=default;" parent="1" vertex="1">
          <mxGeometry x="1221.5" y="818" width="40" height="47" as="geometry" />
        </mxCell>
        <mxCell id="696" value="0" style="rounded=0;whiteSpace=wrap;html=1;fillColor=#60a917;fontColor=#ffffff;strokeColor=#2D7600;" parent="1" vertex="1">
          <mxGeometry x="941" y="818" width="40" height="47" as="geometry" />
        </mxCell>
        <mxCell id="697" value="0" style="rounded=0;whiteSpace=wrap;html=1;fillColor=#60a917;fontColor=#ffffff;strokeColor=#2D7600;" parent="1" vertex="1">
          <mxGeometry x="981" y="818" width="40" height="47" as="geometry" />
        </mxCell>
        <mxCell id="700" value="22对应base64索引表中的W" style="text;html=1;align=center;verticalAlign=middle;resizable=0;points=[];autosize=1;strokeColor=none;fillColor=none;fontSize=24;fontStyle=1" parent="1" vertex="1">
          <mxGeometry x="57.5" y="900" width="317" height="41" as="geometry" />
        </mxCell>
        <mxCell id="701" value="5对应base64索引表中的F" style="text;html=1;align=center;verticalAlign=middle;resizable=0;points=[];autosize=1;strokeColor=none;fillColor=none;fontSize=24;fontStyle=1" parent="1" vertex="1">
          <mxGeometry x="496" y="902" width="295" height="41" as="geometry" />
        </mxCell>
        <mxCell id="703" value="46对应base64索引表中的u" style="text;html=1;align=center;verticalAlign=middle;resizable=0;points=[];autosize=1;strokeColor=none;fillColor=none;fontSize=24;fontStyle=1" parent="1" vertex="1">
          <mxGeometry x="967" y="900" width="309" height="41" as="geometry" />
        </mxCell>
        <mxCell id="705" value="结论：encode(&quot;Man&quot;) 的到的结果就是：TWFu" style="text;html=1;align=center;verticalAlign=middle;resizable=0;points=[];autosize=1;strokeColor=#6F0000;fillColor=#a20025;fontSize=24;fontStyle=1;fontColor=#ffffff;" parent="1" vertex="1">
          <mxGeometry x="19" y="1010" width="526" height="41" as="geometry" />
        </mxCell>
        <mxCell id="FOQvwApJgPjYKmk9cuDI-705" value="情况1： 待转换的字节数刚好为3的倍数时" style="text;html=1;align=center;verticalAlign=middle;resizable=0;points=[];autosize=1;strokeColor=none;fillColor=none;fontSize=48;fontStyle=1" vertex="1" parent="1">
          <mxGeometry x="-10.5" y="-88" width="901" height="70" as="geometry" />
        </mxCell>
        <mxCell id="FOQvwApJgPjYKmk9cuDI-707" value="结论：encode(&quot;Man&quot;) 的到的结果就是：TWE=" style="text;html=1;align=center;verticalAlign=middle;resizable=0;points=[];autosize=1;strokeColor=#6F0000;fillColor=#a20025;fontSize=24;fontStyle=1;fontColor=#ffffff;" vertex="1" parent="1">
          <mxGeometry x="3900" y="760" width="514" height="41" as="geometry" />
        </mxCell>
        <mxCell id="FOQvwApJgPjYKmk9cuDI-708" value="结论：encode(&quot;Man&quot;) 的到的结果就是：TQ==" style="text;html=1;align=center;verticalAlign=middle;resizable=0;points=[];autosize=1;strokeColor=#6F0000;fillColor=#a20025;fontSize=24;fontStyle=1;fontColor=#ffffff;" vertex="1" parent="1">
          <mxGeometry x="3880.5" y="1543" width="508" height="41" as="geometry" />
        </mxCell>
        <mxCell id="FOQvwApJgPjYKmk9cuDI-709" value="情况2： 待转换的字节不够3个，为2个字节时" style="text;html=1;align=center;verticalAlign=middle;resizable=0;points=[];autosize=1;strokeColor=none;fillColor=none;fontSize=48;fontStyle=1" vertex="1" parent="1">
          <mxGeometry x="3667" y="-200" width="975" height="70" as="geometry" />
        </mxCell>
        <mxCell id="FOQvwApJgPjYKmk9cuDI-710" value="情况3： 待转换的字节不够3个，为1个字节时" style="text;html=1;align=center;verticalAlign=middle;resizable=0;points=[];autosize=1;strokeColor=none;fillColor=none;fontSize=48;fontStyle=1" vertex="1" parent="1">
          <mxGeometry x="3651" y="1003" width="975" height="70" as="geometry" />
        </mxCell>
      </root>
    </mxGraphModel>
  </diagram>
</mxfile>
